<svg viewBox="0 0 800 800" xmlns="http://www.w3.org/2000/svg"><path d="M-17.470856856420596,668.3638821395061 L-16.278762033192038,666.2425846562667 M-16.278762033192038,666.2425846562667 L-15.263025824890974,664.1630682478989 M-15.263025824890974,664.1630682478989 L-14.389542389350709,662.0570704224342 M-14.389542389350709,662.0570704224342 L-13.680084389064177,659.9684411526223 M-13.680084389064177,659.9684411526223 L-13.136071659906293,657.9034170150615 M-13.136071659906293,657.9034170150615 L-12.758537565347751,655.8681534025212 M-12.758537565347751,655.8681534025212 L-12.548049421417318,653.8686721391084 M-12.548049421417318,653.8686721391084 L-12.504732592636856,651.9108477460776 M-12.504732592636856,651.9108477460776 L-12.628291981045663,650.0005890267847 M-12.628291981045663,650.0005890267847 L-12.917978669494914,648.143531004897 M-12.917978669494914,648.143531004897 L-13.372372757247263,646.3449938878359 M-13.372372757247263,646.3449938878359 L-13.989866541466881,644.6102519418685 M-13.989866541466881,644.6102519418685 L-14.768401118259817,642.9443672632676 M-14.768401118259817,642.9443672632676 L-15.705388683255478,641.3521342473676 M-15.705388683255478,641.3521342473676 L-16.797685631617696,639.8383287669257 M-16.797685631617696,639.8383287669257 L-17.910860072157334,638.5466574083746 M-17.910860072157334,638.5466574083746 L-19.14432474102159,637.3249814933419 M-19.14432474102159,637.3249814933419 L-20.495177248163372,636.1762540332055 M-20.495177248163372,636.1762540332055 L-21.960020800377492,635.1031295561507 M-21.960020800377492,635.1031295561507 L-23.535438884733367,634.1082177974105 M-23.535438884733367,634.1082177974105 L-25.21763096851214,633.193866405634 M-25.21763096851214,633.193866405634 L-27.002508741589054,632.3622125211953 M-27.002508741589054,632.3622125211953 L-28.88588865936879,631.6152804973811 M-28.88588865936879,631.6152804973811 L-30.863311187379168,630.9548677467681 M-30.863311187379168,630.9548677467681 L-32.930134130121814,630.3825975218899 M-32.930134130121814,630.3825975218899 L-35.081473811667706,629.8998119410393 M-35.081473811667706,629.8998119410393 L-37.312437517242415,629.507795222536 M-37.312437517242415,629.507795222536 L-39.61741228415917,629.2074924210714 M-39.61741228415917,629.2074924210714 L-41.72951481869177,629.0178563055476 M-41.72951481869177,629.0178563055476 L-43.92343339900242,628.9011089381895 M-43.92343339900242,628.9011089381895 L-17.139596761608686,605.350260240599 M-17.139596761608686,605.350260240599 L8.548556134283444,582.6290149152684 M8.548556134283444,582.6290149152684 L33.210447821823095,560.6841514562965 M33.210447821823095,560.6841514562965 L47.31473961156382,548.0726530796005 M47.31473961156382,548.0726530796005 L61.094076599214645,535.7068359647526 M81.54754476645894,520.6038219222138 L78.37015875434247,522.5987230215603 M78.37015875434247,522.5987230215603 L75.28798827563173,524.641108526957 M75.28798827563173,524.641108526957 L72.26107549719796,526.7580130681235 M72.26107549719796,526.7580130681235 L69.31643042372718,528.9323689385332 M69.31643042372718,528.9323689385332 L66.45857894395147,531.1614672589712 M66.45857894395147,531.1614672589712 L63.71497861472335,533.4229598140436 M63.71497861472335,533.4229598140436 L61.094076599214645,535.7068359647526 M81.54754476645894,520.6038219222138 L105.23641634162323,506.1251235966016 M105.23641634162323,506.1251235966016 L128.26752433466862,491.95176816001674 M128.26752433466862,491.95176816001674 L150.66954925100802,478.0700608420109 M150.66954925100802,478.0700608420109 L253.66166355122894,590.2193743087602 M253.66166355122894,590.2193743087602 L226.0436942661695,601.9110413262357 M226.0436942661695,601.9110413262357 L197.8111721476033,613.7700821004728 M197.8111721476033,613.7700821004728 L168.94017866166732,625.80356818093 M140.702210472125,634.6817221962535 L144.46920864263032,633.805901849852 M144.46920864263032,633.805901849852 L148.2632611770934,632.8305634750727 M148.2632611770934,632.8305634750727 L151.99289743202405,631.7796175291296 M151.99289743202405,631.7796175291296 L155.69648437374664,630.6441713737391 M155.69648437374664,630.6441713737391 L159.3691321135461,629.426069924944 M159.3691321135461,629.426069924944 L163.00598453906466,628.1273070708997 M163.00598453906466,628.1273070708997 L165.97978318805067,626.9951208838353 M165.97978318805067,626.9951208838353 L168.94017866166732,625.80356818093 M140.702210472125,634.6817221962535 L107.61864862009884,641.880924851237 M107.61864862009884,641.880924851237 L74.01779757939408,649.1073456708481 M74.01779757939408,649.1073456708481 L39.88562092846678,656.3620998595037 M39.88562092846678,656.3620998595037 L11.398401145011462,662.3522339977216 M11.398401145011462,662.3522339977216 L-17.470856856420596,668.3638821395061 M-43.92343339900242,628.9011089381895 L-51.96357013200952,612.6587445145258 M-25.45808358255806,652.0742561630876 L-24.31640875080734,649.8720036757288 M-24.31640875080734,649.8720036757288 L-23.3273280237039,647.681928732052 M-23.3273280237039,647.681928732052 L-22.492977797113895,645.5104956332641 M-22.492977797113895,645.5104956332641 L-21.81526527748838,643.3641940369527 M-21.81526527748838,643.3641940369527 L-21.295309469694644,641.2492052520361 M-21.295309469694644,641.2492052520361 L-20.934036733160838,639.1717217910398 M-20.934036733160838,639.1717217910398 L-20.731725021015222,637.1376619406617 M-20.731725021015222,637.1376619406617 L-20.688305333142353,635.152833597849 M-20.688305333142353,635.152833597849 L-20.803194255210883,633.2228131238645 M-20.803194255210883,633.2228131238645 L-21.07531148062401,631.3529424257147 M-21.07531148062401,631.3529424257147 L-21.503287783669748,629.5484309311076 M-21.503287783669748,629.5484309311076 L-22.08519898098325,627.8141872014301 M-22.08519898098325,627.8141872014301 L-22.818867607377456,626.1549739402412 M-22.818867607377456,626.1549739402412 L-23.701500507000674,624.5751888652127 M-23.701500507000674,624.5751888652127 L-24.73017653951274,623.0791268019492 M-24.73017653951274,623.0791268019492 L-25.901483475781674,621.6707595949755 M-25.901483475781674,621.6707595949755 L-27.21153096423427,620.3537323954959 M-27.21153096423427,620.3537323954959 L-28.65634107733581,619.1315680520248 M-28.65634107733581,619.1315680520248 L-30.23138661420478,618.0073980639643 M-30.23138661420478,618.0073980639643 L-31.93197822188688,616.9841677730013 M-31.93197822188688,616.9841677730013 L-33.752989952478856,616.064472035253 M-33.752989952478856,616.064472035253 L-35.68915025057197,615.2507051548338 M-35.68915025057197,615.2507051548338 L-37.73485894446799,614.5449495127867 M-37.73485894446799,614.5449495127867 L-39.88419002303044,613.948971420755 M-39.88419002303044,613.948971420755 L-42.13108772358237,613.4643126103084 M-42.13108772358237,613.4643126103084 L-44.469080795707555,613.0921325835811 M-44.469080795707555,613.0921325835811 L-46.89175915007763,612.8334569471347 M-46.89175915007763,612.8334569471347 L-49.39220766957908,612.6888543921358 M-49.39220766957908,612.6888543921358 L-51.96357013200952,612.6587445145258 M-17.470856856420596,668.3638821395061 L-25.45808358255806,652.0742561630876 M140.702210472125,634.6817221962535 L132.68829974297148,613.2931215769852 M132.68829974297148,613.2931215769852 L105.63248434842745,619.0667025964838 M105.63248434842745,619.0667025964838 L78.23294304682179,624.857653258217 M-25.45808358255806,652.0742561630876 L78.23294304682179,624.857653258217 M168.94017866166732,625.80356818093 L161.3839218962015,604.4526407710235 M132.68829974297148,613.2931215769852 L136.51491674895658,612.4214909294404 M136.51491674895658,612.4214909294404 L140.36932200841505,611.4507061987422 M140.36932200841505,611.4507061987422 L144.15892166976806,610.4043627990853 M144.15892166976806,610.4043627990853 L147.92240877122634,609.2737615039443 M147.92240877122634,609.2737615039443 L151.65490624411692,608.060713996943 M151.65490624411692,608.060713996943 L155.35146214405637,606.7672041437431 M155.35146214405637,606.7672041437431 L158.3743143771577,605.6395514993942 M158.3743143771577,605.6395514993942 L161.3839218962015,604.4526407710235 M253.66166355122894,590.2193743087602 L359.78404034232557,539.976308262368 M359.78404034232557,539.976308262368 L356.1214770140279,523.0278117595244 M356.1214770140279,523.0278117595244 L330.88357032176066,533.8468312329716 M330.88357032176066,533.8468312329716 L305.12283572163483,544.8033283403993 M305.12283572163483,544.8033283403993 L278.82017676372755,555.9028233233179 M278.82017676372755,555.9028233233179 L251.95539714501479,567.1511607091295 M251.95539714501479,567.1511607091295 L224.50740370832756,578.554442238683 M224.50740370832756,578.554442238683 L196.45401262933734,590.1190831459948 M196.45401262933734,590.1190831459948 L179.03859514843248,597.2538335037107 M179.03859514843248,597.2538335037107 L161.3839218962015,604.4526407710235 M235.19626246309872,420.1529009760195 L150.66954925100802,478.0700608420109 M679.1047596828364,199.9181633591254 L669.9759591014299,202.84027058277502 M669.9759591014299,202.84027058277502 L660.8360078239477,205.82810556442524 M660.8360078239477,205.82810556442524 L651.6841994583042,208.8825110219401 M651.6841994583042,208.8825110219401 L642.5198023474865,212.0043465567353 M642.5198023474865,212.0043465567353 L633.3421003287073,215.19450809685935 M633.3421003287073,215.19450809685935 L624.1503587286178,218.45391160030647 M624.1503587286178,218.45391160030647 L614.9438323600256,221.7834950085399 M614.9438323600256,221.7834950085399 L605.7217760881337,225.18423077000864 M605.7217760881337,225.18423077000864 L596.4834243771353,228.65710783356286 M596.4834243771353,228.65710783356286 L587.2280177827815,232.20315345051802 M587.2280177827815,232.20315345051802 L577.9547818477015,235.82342145026138 M577.9547818477015,235.82342145026138 L568.662924700417,239.51898805944177 M568.662924700417,239.51898805944177 L559.3516594803859,243.29097033860882 M559.3516594803859,243.29097033860882 L550.0201669484823,247.14051097757772 M550.0201669484823,247.14051097757772 L540.667646568569,251.06877560102407 M540.667646568569,251.06877560102407 L531.2932605345754,255.07698334069687 M531.2932605345754,255.07698334069687 L521.8961789029165,259.16637153769636 M521.8961789029165,259.16637153769636 L512.4755290788395,263.33822321236187 M512.4755290788395,263.33822321236187 L503.03048712064816,267.5938376567418 M503.03048712064816,267.5938376567418 L493.5601417645896,271.9345790153599 M493.5601417645896,271.9345790153599 L484.0636148482895,276.361819260587 M484.0636148482895,276.361819260587 L474.540008525352,280.8769977972847 M474.540008525352,280.8769977972847 L464.9884035933901,285.4815741440135 M464.9884035933901,285.4815741440135 L455.4078576785471,290.1770604713817 M455.4078576785471,290.1770604713817 L445.7974314623368,294.96500887537206 M445.7974314623368,294.96500887537206 L436.1561599688599,299.84700886718446 M436.1561599688599,299.84700886718446 L426.4830670416256,304.8246994611015 M426.4830670416256,304.8246994611015 L416.7771173580471,309.8997894150529 M416.7771173580471,309.8997894150529 L407.0373708332436,315.0739769298943 M407.0373708332436,315.0739769298943 L397.2626942591341,320.3490966089126 M397.2626942591341,320.3490966089126 L387.4521262659265,325.72694087275795 M387.4521262659265,325.72694087275795 L377.6045327732733,331.20942381321004 M377.6045327732733,331.20942381321004 L367.71883179006807,336.7984961761112 M367.71883179006807,336.7984961761112 L357.79393614828024,342.49613820069834 M357.79393614828024,342.49613820069834 L347.8286525403067,348.3044402730102 M347.8286525403067,348.3044402730102 L337.8218504624441,354.22550214572243 M337.8218504624441,354.22550214572243 L327.77236162969473,360.2615141748679 M327.77236162969473,360.2615141748679 L317.678938621244,366.41472777701824 M317.678938621244,366.41472777701824 L307.54036446008223,372.68746579444803 M307.54036446008223,372.68746579444803 L297.3553728312886,379.08209951683193 M297.3553728312886,379.08209951683193 L287.122690848381,385.6010885246486 M287.122690848381,385.6010885246486 L276.8409435766181,392.2469928710676 M276.8409435766181,392.2469928710676 L266.50885789457425,399.0223802940128 M266.50885789457425,399.0223802940128 L256.1249960775033,405.92996295930266 M256.1249960775033,405.92996295930266 L245.68793109734673,412.9725275291752 M245.68793109734673,412.9725275291752 L235.19626246309872,420.1529009760195 M679.1047596828364,199.9181633591254 L778.533670227789,255.9043875618221 M359.78404034232557,539.976308262368 L373.1000693144488,533.6628925997786 M373.1000693144488,533.6628925997786 L386.22589874594007,527.3322908528739 M386.22589874594007,527.3322908528739 L399.16069148864744,520.9865572377636 M399.16069148864744,520.9865572377636 L411.9038100377513,514.6276717360172 M411.9038100377513,514.6276717360172 L424.45475221354684,508.2575413506935 M424.45475221354684,508.2575413506935 L436.812997601151,501.8781224028844 M436.812997601151,501.8781224028844 L448.97826908793525,495.4912437706919 M448.97826908793525,495.4912437706919 L460.9503391606479,489.09874499076466 M460.9503391606479,489.09874499076466 L472.7290587098443,482.702402009759 M472.7290587098443,482.702402009759 L484.314407887843,476.303973551921 M484.314407887843,476.303973551921 L495.70646401630154,469.9051298972379 M495.70646401630154,469.9051298972379 L506.90539495552673,463.5075441283377 M506.90539495552673,463.5075441283377 L517.9114093203976,457.1128507303815 M517.9114093203976,457.1128507303815 L528.724900483821,450.7225875237506 M528.724900483821,450.7225875237506 L539.3462462192488,444.33830377685126 M539.3462462192488,444.33830377685126 L549.7759536863765,437.9615008415266 M549.7759536863765,437.9615008415266 L560.0146472490744,431.5935859765498 M560.0146472490744,431.5935859765498 L570.0628898234751,425.2360278896499 M570.0628898234751,425.2360278896499 L579.9214991704096,418.8901276114892 M579.9214991704096,418.8901276114892 L589.5911924229295,412.55726061457017 M589.5911924229295,412.55726061457017 L599.072866815802,406.2386877572477 M599.072866815802,406.2386877572477 L608.3674380024648,399.9356569030417 M608.3674380024648,399.9356569030417 L617.4758744829272,393.6493713072085 M617.4758744829272,393.6493713072085 L626.3992132284845,387.3810033006489 M626.3992132284845,387.3810033006489 L635.1385518591961,381.1316729725328 M635.1385518591961,381.1316729725328 L643.6950186396559,374.9024663133714 M643.6950186396559,374.9024663133714 L652.0698275687101,368.694439694568 M652.0698275687101,368.694439694568 L660.2641868402914,362.5086117173274 M660.2641868402914,362.5086117173274 L668.2794056307457,356.3459352740715 M668.2794056307457,356.3459352740715 L676.1167804328937,350.2073763631958 M676.1167804328937,350.2073763631958 L683.7776848014016,344.09382427043573 M683.7776848014016,344.09382427043573 L691.2635079372403,338.0061535881937 M691.2635079372403,338.0061535881937 L698.5757030321208,331.94519256868335 M698.5757030321208,331.94519256868335 L705.715716509247,325.91175139177443 M705.715716509247,325.91175139177443 L712.6850418913914,319.9065876981058 M712.6850418913914,319.9065876981058 L719.4852108944256,313.93044220323696 M719.4852108944256,313.93044220323696 L726.11776101407,307.98401247459617 M726.11776101407,307.98401247459617 L732.5842669465952,302.06797078971516 M732.5842669465952,302.06797078971516 L738.8863294453352,296.18296267432333 M738.8863294453352,296.18296267432333 L745.0255492442622,290.329593016167 M745.0255492442622,290.329593016167 L751.0035658683923,284.50844599948124 M751.0035658683923,284.50844599948124 L756.8220197911235,278.72007128824225 M756.8220197911235,278.72007128824225 L762.4825735845277,272.9649925904543 M762.4825735845277,272.9649925904543 L767.9869131939121,267.2437134374866 M767.9869131939121,267.2437134374866 L773.336712669063,261.5566957752744 M773.336712669063,261.5566957752744 L778.533670227789,255.9043875618221 M81.54754476645894,520.6038219222138 L73.46185574523872,499.59019927686995 M73.46185574523872,499.59019927686995 L99.71543952920717,483.9020414408334 M99.71543952920717,483.9020414408334 L125.1669773684605,468.5776859921622 M125.1669773684605,468.5776859921622 L149.8547896430864,453.5992375060126 M149.8547896430864,453.5992375060126 L173.81493433810346,438.9498646255605 M173.81493433810346,438.9498646255605 L197.08103023048756,424.6138775309339 M197.08103023048756,424.6138775309339 L214.06914947320212,414.07424393867507 M214.06914947320212,414.07424393867507 L230.69845884001234,403.69614680096913 M235.19626246309872,420.1529009760195 L230.69845884001234,403.69614680096913 M61.094076599214645,535.7068359647526 L52.632535114475104,514.6110731670358 M73.46185574523872,499.59019927686995 L70.228981152433,501.57373702108134 M70.228981152433,501.57373702108134 L67.09209825643552,503.6046604675164 M67.09209825643552,503.6046604675164 L64.01053012856505,505.7098541168857 M64.01053012856505,505.7098541168857 L61.01185364495922,507.8723256815639 M61.01185364495922,507.8723256815639 L58.100420658803046,510.08951438091367 M58.100420658803046,510.08951438091367 L55.30446535983015,512.3390690462047 M55.30446535983015,512.3390690462047 L52.632535114475104,514.6110731670358 M17.485274745220636,545.3005544839215 L-51.96357013200952,612.6587445145258 M17.485274745220636,545.3005544839215 L35.31436844356426,529.7672812408719 M35.31436844356426,529.7672812408719 L52.632535114475104,514.6110731670358 M17.485274745220636,545.3005544839215 L78.23294304682179,624.857653258217 M356.1214770140279,523.0278117595244 L368.3169432217338,517.7658479692809 M368.3169432217338,517.7658479692809 L380.36391305370364,512.4632839702087 M380.36391305370364,512.4632839702087 L392.22209011446137,507.13936185187424 M392.22209011446137,507.13936185187424 L403.9121290746494,501.7865975092377 M403.9121290746494,501.7865975092377 L415.4344318451341,496.4063333505038 M415.4344318451341,496.4063333505038 L426.7893633726218,490.9999194731274 M426.7893633726218,490.9999194731274 L437.97743933951836,485.56866677366236 M437.97743933951836,485.56866677366236 L448.9991176336898,480.1138763650083 M448.9991176336898,480.1138763650083 L459.85496386588295,474.63683219287816 M459.85496386588295,474.63683219287816 L470.54554005392424,469.13880145221026 M470.54554005392424,469.13880145221026 L481.0715579355683,463.6209810448588 M481.0715579355683,463.6209810448588 L491.4336307942299,458.0846184040265 M491.4336307942299,458.0846184040265 L501.6325170267603,452.5308891308565 M501.6325170267603,452.5308891308565 L511.6689393558298,446.96097995058494 M511.6689393558298,446.96097995058494 L521.5437214818523,441.3760185814392 M521.5437214818523,441.3760185814392 L531.2576802013132,435.7771288699613 M531.2576802013132,435.7771288699613 L540.8116490268947,430.1654412246895 M540.8116490268947,430.1654412246895 L550.2065377957731,424.5420202503217 M550.2065377957731,424.5420202503217 L559.443269342171,418.9079374910965 M559.443269342171,418.9079374910965 L568.5227432068132,413.26424952572927 M568.5227432068132,413.26424952572927 L578.4266242812943,406.98421139822926 M578.4266242812943,406.98421139822926 L588.138270369146,400.6954197233043 M588.138270369146,400.6954197233043 L597.6598986975337,394.3986942073499 M597.6598986975337,394.3986942073499 L606.992927469134,388.095352202408 M606.992927469134,388.095352202408 L616.1388001518916,381.78667713289985 M616.1388001518916,381.78667713289985 L625.0989760538581,375.4739354301356 M625.0989760538581,375.4739354301356 L633.874975696697,369.1583541703809 M633.874975696697,369.1583541703809 L642.4682855293028,362.8411455861592 M642.4682855293028,362.8411455861592 L650.880468659566,356.5234784338413 M650.880468659566,356.5234784338413 L659.1130574584321,350.20651388031274 M659.1130574584321,350.20651388031274 L667.1676569746247,343.8913544021919 M667.1676569746247,343.8913544021919 L675.0458310625056,337.5791214233982 M675.0458310625056,337.5791214233982 L682.7491874242212,331.27087321718494 M682.7491874242212,331.27087321718494 L690.2793415989464,324.96766295547957 M690.2793415989464,324.96766295547957 L697.6379165381198,318.67051552748086 M697.6379165381198,318.67051552748086 L704.8265472805577,312.3804336839107 M704.8265472805577,312.3804336839107 L711.84686718142,306.09838826655664 M711.84686718142,306.09838826655664 L718.7005190600992,299.82534319657776 M718.7005190600992,299.82534319657776 L725.3891659046785,293.5622253867081 M725.3891659046785,293.5622253867081 L731.9144531477749,287.30994792679587 M731.9144531477749,287.30994792679587 L738.278035026735,281.06939931242755 M738.278035026735,281.06939931242755 L744.4815734671154,274.84145446962043 M744.4815734671154,274.84145446962043 L750.5267232148786,268.62695485244 M750.5267232148786,268.62695485244 L756.415147676661,262.42673941380986 M756.415147676661,262.42673941380986 L762.1485016246171,256.2416141699592 M762.1485016246171,256.2416141699592 L767.7284407665529,250.0723712580562 M767.7284407665529,250.0723712580562 L773.1566132076424,243.91978615824354 M773.1566132076424,243.91978615824354 L778.4346666081218,237.78461216072748 M778.4346666081218,237.78461216072748 L783.5642522273297,231.66759325041517 M783.5642522273297,231.66759325041517 L788.547002743388,225.56944927781421 M788.547002743388,225.56944927781421 L793.384550565089,219.49088756503505 M793.384550565089,219.49088756503505 L798.0785252045608,213.43259582258526 M798.0785252045608,213.43259582258526 L802.6305510871013,207.3952450377314 M802.6305510871013,207.3952450377314 L807.0422314795392,201.37950222462064 M807.0422314795392,201.37950222462064 L811.3151870058095,195.38600576065926 M811.3151870058095,195.38600576065926 L815.4510024463964,189.41538884035674 M815.4510024463964,189.41538884035674 L819.4512744216022,183.46826906551718 M819.4512744216022,183.46826906551718 L822.7994953153324,178.3494639801392 M822.7994953153324,178.3494639801392 L826.0386771906917,173.2650203573528 M775.838915087165,148.10069489004616 L826.0386771906917,173.2650203573528 M775.838915087165,148.10069489004616 L767.5418610166658,150.75729299417094 M767.5418610166658,150.75729299417094 L759.2244003057684,153.4561458251303 M759.2244003057684,153.4561458251303 L750.9351299400694,156.18154756464685 M750.9351299400694,156.18154756464685 L742.6487632510576,158.9417250242364 M742.6487632510576,158.9417250242364 L734.3646228165042,161.73698518058984 M734.3646228165042,161.73698518058984 L726.0820481794018,164.5676387573102 M726.0820481794018,164.5676387573102 L717.8003458504879,167.434022840061 M717.8003458504879,167.434022840061 L709.5188417153121,170.3364787860657 M709.5188417153121,170.3364787860657 L701.2368331292759,173.27537332508035 M701.2368331292759,173.27537332508035 L692.9536285466797,176.25108056760826 M692.9536285466797,176.25108056760826 L684.6685178380095,179.2639968043821 M684.6685178380095,179.2639968043821 L676.3807894354064,182.31452623848867 M676.3807894354064,182.31452623848867 L668.0897166687568,185.40309395864153 M668.0897166687568,185.40309395864153 L659.794577625113,188.53014767353176 M659.794577625113,188.53014767353176 L651.494389380945,191.69623257275663 M651.494389380945,191.69623257275663 L643.1880325556274,194.90197584539993 M643.1880325556274,194.90197584539993 L634.8756361694502,198.14753247461113 M634.8756361694502,198.14753247461113 L626.5564390864727,201.43341432209377 M626.5564390864727,201.43341432209377 L618.229656247234,204.76015115797657 M618.229656247234,204.76015115797657 L609.8945022231052,208.1282884308784 M609.8945022231052,208.1282884308784 L601.5501846478353,211.53839848146066 M601.5501846478353,211.53839848146066 L593.1959033407483,214.9910712935332 M593.1959033407483,214.9910712935332 L584.8308399613826,218.48690333490367 M584.8308399613826,218.48690333490367 L576.4541661109783,222.02653723872731 M576.4541661109783,222.02653723872731 L568.0650492912577,225.61061186900207 M568.0650492912577,225.61061186900207 L559.6626529110895,229.23980564308812 M559.6626529110895,229.23980564308812 L551.2461054250922,232.91481164033718 M551.2461054250922,232.91481164033718 L542.8145542587381,236.63634687057277 M542.8145542587381,236.63634687057277 L534.3671102220105,240.4051529856344 M534.3671102220105,240.4051529856344 L525.9028744532023,244.22199603937503 M525.9028744532023,244.22199603937503 L517.4209570220568,248.08765543182568 M517.4209570220568,248.08765543182568 L508.92043106635003,252.00296047265653 M508.92043106635003,252.00296047265653 L500.4003557280047,255.96874859649898 M500.4003557280047,255.96874859649898 L491.8598101031521,259.9858756486928 M491.8598101031521,259.9858756486928 L483.29780890760196,264.05525357661156 M483.29780890760196,264.05525357661156 L474.71337492701,268.1778060974555 M474.71337492701,268.1778060974555 L466.1055398192391,272.35447052252755 M466.1055398192391,272.35447052252755 L457.4732864187906,276.58623890827613 M457.4732864187906,276.58623890827613 L448.8155776392261,280.8741321722213 M448.8155776392261,280.8741321722213 L440.1313835156211,285.2191856137625 M440.1313835156211,285.2191856137625 L431.4196592903355,289.62247075384107 M431.4196592903355,289.62247075384107 L422.6792925117253,294.0851244609545 M422.6792925117253,294.0851244609545 L413.909208493603,298.60827230715626 M413.909208493603,298.60827230715626 L404.1284900709478,303.7063630424727 M404.1284900709478,303.7063630424727 L394.3082019039283,308.88225577188 M394.3082019039283,308.88225577188 L384.44673973227447,314.1376732553166 M384.44673973227447,314.1376732553166 L374.5424784160459,319.4744074997017 M374.5424784160459,319.4744074997017 L364.5937605341138,324.8943146047568 M364.5937605341138,324.8943146047568 L354.5989204744903,330.3992982321566 M354.5989204744903,330.3992982321566 L344.5561829458547,335.99135188130253 M344.5561829458547,335.99135188130253 L334.46381114993915,341.67251957482824 M334.46381114993915,341.67251957482824 L324.3199800140792,347.4449179064131 M324.3199800140792,347.4449179064131 L314.12283933134836,353.31075387581814 M314.12283933134836,353.31075387581814 L303.8705097863186,359.2722825858408 M303.8705097863186,359.2722825858408 L293.561042005877,365.33186087119054 M293.561042005877,365.33186087119054 L283.19246830666725,371.49190806152683 M283.19246830666725,371.49190806152683 L272.76270967468497,377.75497148686964 M272.76270967468497,377.75497148686964 L262.2697208182635,384.1236225081859 M262.2697208182635,384.1236225081859 L251.71135472434747,390.600577917466 M251.71135472434747,390.600577917466 L241.2297884069053,397.09864362743576 M241.2297884069053,397.09864362743576 L230.69845884001234,403.69614680096913 M778.533670227789,255.9043875618221 L783.5912352877119,249.74056982069175 M783.5912352877119,249.74056982069175 L788.491062994366,243.6122339293944 M788.491062994366,243.6122339293944 L793.2621173921807,237.48582594128789 M793.2621173921807,237.48582594128789 L797.8920670495335,231.37919099902712 M797.8920670495335,231.37919099902712 L802.3824755564374,225.29300900806697 M802.3824755564374,225.29300900806697 L806.7348958432295,219.22793979575357 M806.7348958432295,219.22793979575357 L810.9508702512941,213.18463074428098 M810.9508702512941,213.18463074428098 L815.0319439742354,207.16371749759446 M815.0319439742354,207.16371749759446 L818.979651950366,201.16581284146878 M818.979651950366,201.16581284146878 L822.7955125990948,195.19152683869743 M822.7955125990948,195.19152683869743 L826.4810419959393,189.24145061130395 M826.4810419959393,189.24145061130395 L830.0377508879707,183.31616442545237 M830.0377508879707,183.31616442545237 L833.4671353291874,177.4162327321007 M833.4671353291874,177.4162327321007 L836.7706948416932,171.5422051776374 M836.7706948416932,171.5422051776374 L839.9499000502003,165.69462785115314 M839.9499000502003,165.69462785115314 L843.00621710663,159.87403434687326 M843.00621710663,159.87403434687326 L845.94113059155,154.08093035017123 M845.94113059155,154.08093035017123 L848.5883174281603,148.66554693307364 M848.5883174281603,148.66554693307364 L851.1224998096621,143.29335650327437 M851.1224998096621,143.29335650327437 L851.9635701320095,131.63611786049387 M826.0386771906917,173.2650203573528 L829.362256840191,168.5072991591352 M829.362256840191,168.5072991591352 L832.5718530560824,163.7824418856464 M832.5718530560824,163.7824418856464 L835.6688554081984,159.09055617916806 M835.6688554081984,159.09055617916806 L838.6546465893903,154.43173817468295 M838.6546465893903,154.43173817468295 L841.53061091735,149.80606698158874 M841.53061091735,149.80606698158874 L844.2981267455813,145.2136121896349 M844.2981267455813,145.2136121896349 L846.9585535860498,140.65443821484547 M846.9585535860498,140.65443821484547 L849.5132510551686,136.12859364943444 M849.5132510551686,136.12859364943444 L851.9635701320095,131.63611786049387 M851.1224998096621,143.29335650327437 L842.8318213292489,145.6629042541074 M842.8318213292489,145.6629042541074 L834.5239220772356,148.07316604277207 M834.5239220772356,148.07316604277207 L826.2529773118172,150.5084080240278 M826.2529773118172,150.5084080240278 L817.9909792942536,152.97669617123637 M817.9909792942536,152.97669617123637 L809.7373357504222,155.47820647512435 M809.7373357504222,155.47820647512435 L801.491443476949,158.01313390292717 M801.491443476949,158.01313390292717 L793.2526927037242,160.5816814301926 M793.2526927037242,160.5816814301926 L785.0204537462333,163.18407857563284 M785.0204537462333,163.18407857563284 L776.794118740359,165.8205478225526 M776.794118740359,165.8205478225526 L768.5730512108403,168.4913379629466 M768.5730512108403,168.4913379629466 L760.3566323433721,171.1967067789313 M760.3566323433721,171.1967067789313 L752.1442117637127,173.9369257943522 M752.1442117637127,173.9369257943522 L743.9351620558107,176.71227779610723 M743.9351620558107,176.71227779610723 L735.7288238803552,179.52306616937057 M735.7288238803552,179.52306616937057 L727.5245523892982,182.36960249575532 M727.5245523892982,182.36960249575532 L719.3216858436732,185.25221019199762 M719.3216858436732,185.25221019199762 L711.119555977986,188.17123768729095 M711.119555977986,188.17123768729095 L702.9174927047994,191.1270381935674 M702.9174927047994,191.1270381935674 L694.7148161161746,194.11998866852457 M694.7148161161746,194.11998866852457 L686.920142379294,196.99840146990408 M686.920142379294,196.99840146990408 L679.1047596828364,199.9181633591254 M851.9635701320095,131.63611786049387 L843.5064841179703,133.2812705972148 M843.5064841179703,133.2812705972148 L835.0503207209725,134.97156577800644 M835.0503207209725,134.97156577800644 L826.5945580841048,136.70737945753308 M826.5945580841048,136.70737945753308 L818.1386703957761,138.48909982923243 M818.1386703957761,138.48909982923243 L809.6821389164197,140.3171226991555 M809.6821389164197,140.3171226991555 L801.2244324142691,142.19186246765224 M801.2244324142691,142.19186246765224 L792.765013796537,144.11374566165176 M792.765013796537,144.11374566165176 L784.3033527395012,146.08320704028552 M784.3033527395012,146.08320704028552 L775.838915087165,148.10069489004616" stroke="black"  stroke-width="4"  fill="red"/></svg>