<svg viewBox="0 0 800 800" xmlns="http://www.w3.org/2000/svg"><path d="M-23.455607089091018,665.7234415033203 L-22.397125018839347,663.6061196740724 M-22.397125018839347,663.6061196740724 L-21.515708669307287,661.5348231410579 M-21.515708669307287,661.5348231410579 L-20.7835022051691,659.4455986687774 M-20.7835022051691,659.4455986687774 L-20.21837769925213,657.3800121289812 M-20.21837769925213,657.3800121289812 L-19.82140651642959,655.3442440861922 M-19.82140651642959,655.3442440861922 L-19.59328240473019,653.344397103504 M-19.59328240473019,653.344397103504 L-19.534061335194792,651.3863193861831 M-19.534061335194792,651.3863193861831 L-19.64336299388424,649.4757243852466 M-19.64336299388424,649.4757243852466 L-19.92058900926594,647.6182742686586 M-19.92058900926594,647.6182742686586 L-20.364459203899116,645.8193225281007 M-20.364459203899116,645.8193225281007 L-20.97322153636577,644.0840140577828 M-20.97322153636577,644.0840140577828 L-21.74495339943934,642.4174393398099 M-21.74495339943934,642.4174393398099 L-22.67710080999899,640.8243721288943 M-22.67710080999899,640.8243721288943 L-23.766374360853035,639.3100180271401 M-23.766374360853035,639.3100180271401 L-24.878237690986566,638.017874830939 M-24.878237690986566,638.017874830939 L-26.112077540756673,636.7957006615856 M-26.112077540756673,636.7957006615856 L-27.464803079706826,635.6463507234067 M-27.464803079706826,635.6463507234067 L-28.933104608616816,634.5725423516349 M-28.933104608616816,634.5725423516349 L-30.513562321824338,633.5768888567702 M-30.513562321824338,633.5768888567702 L-32.202269200174555,632.6616972444846 M-32.202269200174555,632.6616972444846 L-33.99531294976225,631.8292160395799 M-33.99531294976225,631.8292160395799 L-35.88821341456725,631.0813199157585 M-35.88821341456725,631.0813199157585 L-37.87677398536454,630.419976212795 M-37.87677398536454,630.419976212795 L-39.95605308518748,629.8466542698576 M-39.95605308518748,629.8466542698576 L-42.12130394813755,629.3628524591322 M-42.12130394813755,629.3628524591322 L-44.367320609041656,628.9697172079938 M-44.367320609041656,628.9697172079938 L-46.28973656462608,628.7128938194146 M-46.28973656462608,628.7128938194146 L-48.286145543819316,628.5178380383576 M-48.286145543819316,628.5178380383576 L-21.175861556145094,605.0280885840235 M-21.175861556145094,605.0280885840235 L4.816144782160052,582.3722068750205 M4.816144782160052,582.3722068750205 L29.761168251741992,560.4963558480067 M29.761168251741992,560.4963558480067 L45.69568891264771,546.4504484636911 M45.69568891264771,546.4504484636911 L61.21740046442159,532.7119064179273 M81.80173334751663,517.7100152416286 L78.60555345724572,519.691126233472 M78.60555345724572,519.691126233472 L75.50468121879635,521.719539903643 M75.50468121879635,521.719539903643 L72.4589151345134,523.8221132451798 M72.4589151345134,523.8221132451798 L69.495426810548,525.9819019161873 M69.495426810548,525.9819019161873 L66.61877328437379,528.1962233146995 M66.61877328437379,528.1962233146995 L63.85658877138599,530.4428698700988 M63.85658877138599,530.4428698700988 L61.21740046442159,532.7119064179273 M81.80173334751663,517.7100152416286 L107.52598663565038,502.18191138434076 M107.52598663565038,502.18191138434076 L132.4748701611623,487.0078956018572 M132.4748701611623,487.0078956018572 L156.6853620482283,472.1705553879814 M156.6853620482283,472.1705553879814 L180.19153708908593,457.65388789562667 M180.19153708908593,457.65388789562667 L203.0257548635309,443.4426512444302 M203.0257548635309,443.4426512444302 L220.36575601604073,432.57566491904515 M220.36575601604073,432.57566491904515 L237.32999369069492,421.87896908263417 M853.7232169447482,142.9235810001535 L845.4213420874344,145.28508821359515 M845.4213420874344,145.28508821359515 L837.102353185244,147.68676871372924 M837.102353185244,147.68676871372924 L828.8201143749063,150.11305864762704 M828.8201143749063,150.11305864762704 L820.5467584245052,152.57194270745345 M820.5467584245052,152.57194270745345 L812.2816973297497,155.06358886706585 M812.2816973297497,155.06358886706585 L804.0243098702224,157.58819497751819 M804.0243098702224,157.58819497751819 L795.7739805318904,160.1459628417275 M795.7739805318904,160.1459628417275 L787.5300696293903,162.73711939471042 M787.5300696293903,162.73711939471042 L779.2919761213018,165.36188255700017 M779.2919761213018,165.36188255700017 L771.0590398377458,168.02050662586623 M771.0590398377458,168.02050662586623 L762.8306469301567,170.713237226439 M762.8306469301567,170.713237226439 L754.6061320748994,173.44035224097064 M754.6061320748994,173.44035224097064 L746.3848602070891,176.20213112926706 M746.3848602070891,176.20213112926706 L738.1661745201816,178.99887014024296 M738.1661745201816,178.99887014024296 L729.9494093046297,181.8308839811919 M729.9494093046297,181.8308839811919 L721.7338974666196,184.69849420250955 M721.7338974666196,184.69849420250955 L713.5189678248848,187.60204283266296 M713.5189678248848,187.60204283266296 L705.3039394692671,190.5418879455666 M705.3039394692671,190.5418879455666 L697.0881482395935,193.51838862076227 M697.0881482395935,193.51838862076227 L688.8712008453392,196.53182337165458 M688.8712008453392,196.53182337165458 L680.6522222935586,199.58264882037588 M680.6522222935586,199.58264882037588 L672.4305085579492,202.67128385612142 M672.4305085579492,202.67128385612142 L664.2053396849876,205.79816444080905 M664.2053396849876,205.79816444080905 L655.9759878278307,208.963739378872 M655.9759878278307,208.963739378872 L647.7417207143019,212.16848009710907 M647.7417207143019,212.16848009710907 L639.5017898387275,215.41286822974524 M639.5017898387275,215.41286822974524 L631.2554446230304,218.69740971805885 M631.2554446230304,218.69740971805885 L623.0019254297224,222.02262713455883 M623.0019254297224,222.02262713455883 L614.7404689840937,225.38906162476428 M614.7404689840937,225.38906162476428 L606.4701564613155,228.7973309051108 M606.4701564613155,228.7973309051108 L598.1900765798609,232.2480700120541 M598.1900765798609,232.2480700120541 L589.8998655317932,235.74169422867834 M589.8998655317932,235.74169422867834 L581.5987297815327,239.27882683805456 M581.5987297815327,239.27882683805456 L573.2858251657699,242.8601072108247 M573.2858251657699,242.8601072108247 L564.9603397142805,246.48619436511956 M564.9603397142805,246.48619436511956 L556.6214242915707,250.15777883342707 M556.6214242915707,250.15777883342707 L548.2682235281482,253.87556305800888 M548.2682235281482,253.87556305800888 L539.8998774280496,257.6402826556168 M539.8998774280496,257.6402826556168 L531.5155129209277,261.45268823787944 M531.5155129209277,261.45268823787944 L523.11422849234,265.3135660598636 M523.11422849234,265.3135660598636 L514.6951327124141,269.2237118165589 M514.6951327124141,269.2237118165589 L506.2573110802473,273.18395418203664 M506.2573110802473,273.18395418203664 L497.7998250461569,277.19515643181023 M497.7998250461569,277.19515643181023 L489.32175031321896,281.2581960817533 M489.32175031321896,281.2581960817533 L480.8221194705104,285.3739906389314 M480.8221194705104,285.3739906389314 L472.29995534131245,289.54347296551725 M472.29995534131245,289.54347296551725 L463.75428260212,293.7676168630392 M463.75428260212,293.7676168630392 L455.1841021978169,298.04742112234214 M455.1841021978169,298.04742112234214 L446.5883769658553,302.3839163701298 M446.5883769658553,302.3839163701298 L437.9660693504244,306.7781782375149 M437.9660693504244,306.7781782375149 L429.31614761231305,311.23127958497065 M429.31614761231305,311.23127958497065 L420.6375233493163,315.7443693619778 M420.6375233493163,315.7443693619778 L410.95962925239843,320.8306690602465 M410.95962925239843,320.8306690602465 L401.2434744736297,325.9940889186633 M401.2434744736297,325.9940889186633 L391.48750933884594,331.23633600295284 M391.48750933884594,331.23633600295284 L381.69014000505854,336.55916718345645 M381.69014000505854,336.55916718345645 L371.84978622971846,341.96439814743 M371.84978622971846,341.96439814743 L361.9647272372574,347.4539412609491 M361.9647272372574,347.4539412609491 L352.03330695378355,353.029738457783 M352.03330695378355,353.029738457783 L342.0538302861778,358.69379629094357 M342.0538302861778,358.69379629094357 L332.0244594203437,364.44823107406694 M332.0244594203437,364.44823107406694 L321.94346012908284,370.29518616306666 M321.94346012908284,370.29518616306666 L311.80893666122245,376.236906849064 M311.80893666122245,376.236906849064 L301.6190286391371,382.27569919452935 M301.6190286391371,382.27569919452935 L291.37176384700683,388.4139830996005 M291.37176384700683,388.4139830996005 L281.0652113538684,394.6542061350731 M281.0652113538684,394.6542061350731 L270.6973244990395,400.9989356177209 M270.6973244990395,400.9989356177209 L260.2660166114093,407.4508427756921 M260.2660166114093,407.4508427756921 L249.76916343377417,414.0126605501174 M249.76916343377417,414.0126605501174 L243.55816484602175,417.9281316874801 M243.55816484602175,417.9281316874801 L237.32999369069492,421.87896908263417 M361.8509229929186,541.1510444589338 L373.91500302102503,535.8988025854707 M373.91500302102503,535.8988025854707 L385.83277773413243,530.6056563531645 M385.83277773413243,530.6056563531645 L397.5640894678476,525.2909379157032 M397.5640894678476,525.2909379157032 L409.12961211926006,519.9470637659801 M409.12961211926006,519.9470637659801 L420.52962397644626,514.5754229684784 M420.52962397644626,514.5754229684784 L431.76459449996855,509.1773023476228 M431.76459449996855,509.1773023476228 L442.8349159009789,503.75406080886967 M442.8349159009789,503.75406080886967 L453.7411141316696,498.3069611362605 M453.7411141316696,498.3069611362605 L464.48374155463944,492.8372795777083 M464.48374155463944,492.8372795777083 L475.0633469809918,487.3462792759216 M475.0633469809918,487.3462792759216 L485.4805887823377,481.835165512716 M485.4805887823377,481.835165512716 L495.736141323962,476.3051505054351 M495.736141323962,476.3051505054351 L505.83070212949673,470.75741506632494 M505.83070212949673,470.75741506632494 L515.7650199969606,465.1931307954169 M515.7650199969606,465.1931307954169 L525.5398572639008,459.61343315909323 M525.5398572639008,459.61343315909323 L535.1560304266734,454.01945416183935 M535.1560304266734,454.01945416183935 L544.6143660445315,448.4122890606368 M544.6143660445315,448.4122890606368 L553.9157713380268,442.7930113769156 M553.9157713380268,442.7930113769156 L563.0611007403168,437.1626963739084 M563.0611007403168,437.1626963739084 L572.0513036387649,431.5223690529689 M572.0513036387649,431.5223690529689 L581.8593239199126,425.24503291099745 M581.8593239199126,425.24503291099745 L591.478104261108,418.95813299473605 M591.478104261108,418.95813299473605 L600.9091991904863,412.66287646059845 M600.9091991904863,412.66287646059845 L610.1540121246967,406.36058526877923 M610.1540121246967,406.36058526877923 L619.2139788815186,400.0525362811908 M619.2139788815186,400.0525362811908 L628.0905377389466,393.7399803747795 M628.0905377389466,393.7399803747795 L636.7851660742571,387.42415014164806 M636.7851660742571,387.42415014164806 L645.2993406102855,381.10625235081136 M645.2993406102855,381.10625235081136 L653.634613291583,374.7874511808034 M653.634613291583,374.7874511808034 L661.7924795475345,368.4689023807284 M661.7924795475345,368.4689023807284 L669.7744932826378,362.1517278232783 M669.7744932826378,362.1517278232783 L677.5822322099149,355.83702943037235 M677.5822322099149,355.83702943037235 L685.2172531145063,349.52586877725446 M685.2172531145063,349.52586877725446 L692.6811581269874,343.21930327133015 M692.6811581269874,343.21930327133015 L699.9755380656792,336.91835149295736 M699.9755380656792,336.91835149295736 L707.1019771395984,330.6240202533102 M707.1019771395984,330.6240202533102 L714.0621131179897,324.3372899656819 M714.0621131179897,324.3372899656819 L720.8575499611368,318.059107744588 M720.8575499611368,318.059107744588 L727.4899059297477,311.79041680126426 M727.4899059297477,311.79041680126426 L733.9608061321165,305.53213179119257 M733.9608061321165,305.53213179119257 L740.271745510671,299.2852844279735 M740.271745510671,299.2852844279735 L746.4243634634478,293.0507357404788 M746.4243634634478,293.0507357404788 L752.4206515012929,286.8289772065858 M752.4206515012929,286.8289772065858 L758.2622146827846,280.62083472241073 M758.2622146827846,280.62083472241073 L763.9506767923782,274.4271250698451 M763.9506767923782,274.4271250698451 L769.4876433586153,268.2486379758289 M769.4876433586153,268.2486379758289 L774.8747288523416,262.0861518595436 M774.8747288523416,262.0861518595436 L780.1135395239546,255.94042515197066 M780.1135395239546,255.94042515197066 L785.2056715276229,249.81219589985983 M785.2056715276229,249.81219589985983 L790.1527272886683,243.702189062841 M790.1527272886683,243.702189062841 L794.956301707801,237.61111240807998 M794.956301707801,237.61111240807998 L799.6179709947875,231.53966164816148 M799.6179709947875,231.53966164816148 L804.1393258639685,225.4885071741785 M804.1393258639685,225.4885071741785 L808.5219329414776,219.4583136422815 M808.5219329414776,219.4583136422815 L812.7673644910142,213.4497257386247 M812.7673644910142,213.4497257386247 L816.8771701694637,207.46337807571615 M816.8771701694637,207.46337807571615 L820.8529067210484,201.4998922552362 M820.8529067210484,201.4998922552362 L824.6961178754025,195.55986710123955 M824.6961178754025,195.55986710123955 L828.4083371099669,189.64389456116697 M828.4083371099669,189.64389456116697 L831.9910809624175,183.75256033589244 M831.9910809624175,183.75256033589244 L835.4458689384321,177.88642607983542 M835.4458689384321,177.88642607983542 L838.7742202277418,172.04604070440388 M838.7742202277418,172.04604070440388 L841.977610686087,166.23195446473125 M841.977610686087,166.23195446473125 L845.0575431601662,160.44469290232178 M845.0575431601662,160.44469290232178 L848.0154893226527,154.6847759517429 M848.0154893226527,154.6847759517429 L850.8529229108858,148.9527053845203 M850.8529229108858,148.9527053845203 L852.3060187313997,145.9311607118794 M852.3060187313997,145.9311607118794 L853.7232169447482,142.9235810001535 M361.8509229929186,541.1510444589338 L337.1047597077184,551.8551428660734 M337.1047597077184,551.8551428660734 L311.8534691135552,562.692417913822 M311.8534691135552,562.692417913822 L286.0788731815421,573.6681555799926 M286.0788731815421,573.6681555799926 L259.76166385087083,584.787990066663 M259.76166385087083,584.787990066663 L232.88172807649983,596.057770833671 M232.88172807649983,596.057770833671 L205.41800191386838,607.4835922337086 M205.41800191386838,607.4835922337086 L187.43383780487233,614.9184114241847 M187.43383780487233,614.9184114241847 L169.19271504147812,622.4223028449138 M140.80712038842296,631.2402999133119 L144.59305983758424,630.3711028715959 M144.59305983758424,630.3711028715959 L148.406427390202,629.4028554736492 M148.406427390202,629.4028554736492 L152.1552793753021,628.3592956182887 M152.1552793753021,628.3592956182887 L155.87816497400132,627.2315934004384 M155.87816497400132,627.2315934004384 L159.57017957390414,626.0216054271148 M159.57017957390414,626.0216054271148 L163.22642005099436,624.731296313858 M163.22642005099436,624.731296313858 L166.2161480358416,623.6063998364064 M166.2161480358416,623.6063998364064 L169.19271504147812,622.4223028449138 M140.80712038842296,631.2402999133119 L107.61330755292715,638.3710219868796 M107.61330755292715,638.3710219868796 L73.89728251184215,645.5277091188484 M73.89728251184215,645.5277091188484 L39.64478696228241,652.711455203151 M39.64478696228241,652.711455203151 L8.326346720887273,659.205054588393 M8.326346720887273,659.205054588393 L-23.455607089091018,665.7234415033203 M-48.286145543819316,628.5178380383576 L-54.34710002951687,616.3586099976513 M-29.483041180730936,653.5277146930073 L-28.4236167967519,651.3740083548865 M-28.4236167967519,651.3740083548865 L-27.541904327449856,649.269970961197 M-27.541904327449856,649.269970961197 L-26.809375218534058,647.1492987255593 M-26.809375218534058,647.1492987255593 L-26.244362974824355,645.0549172628101 M-26.244362974824355,645.0549172628101 L-25.8478542543578,642.9930159990402 M-25.8478542543578,642.9930159990402 L-25.620737345812245,640.9698762692685 M-25.620737345812245,640.9698762692685 L-25.5629668426011,638.9913582769964 M-25.5629668426011,638.9913582769964 L-25.674448182110723,637.0633835248765 M-25.674448182110723,637.0633835248765 L-25.95427902243074,635.1915172964979 M-25.95427902243074,635.1915172964979 L-26.40126316325376,633.3812049634639 M-26.40126316325376,633.3812049634639 L-27.013911629830318,631.6377981423868 M-27.013911629830318,631.6377981423868 L-27.789990611674,629.966267559391 M-27.789990611674,629.966267559391 L-28.727106015155584,628.3715299397431 M-28.727106015155584,628.3715299397431 L-29.821884343318516,626.8588911931536 M-29.821884343318516,626.8588911931536 L-30.93909212547976,625.5711135912602 M-30.93909212547976,625.5711135912602 L-32.178595084188316,624.3559633005361 M-32.178595084188316,624.3559633005361 L-33.53736437032347,623.2163625002873 M-33.53736437032347,623.2163625002873 L-35.012061972857055,622.1550276584321 M-35.012061972857055,622.1550276584321 L-36.59904799703082,621.1744652174667 M-36.59904799703082,621.1744652174667 L-38.29447837657091,620.2770282994966 M-38.29447837657091,620.2770282994966 L-40.09431505714059,619.4649016515501 M-40.09431505714059,619.4649016515501 L-41.99423614003774,618.7400455253199 M-41.99423614003774,618.7400455253199 L-43.98963983357578,618.1041882773045 M-43.98963983357578,618.1041882773045 L-46.075840686745664,617.5589223010006 M-46.075840686745664,617.5589223010006 L-48.24777960728119,617.1055541801616 M-48.24777960728119,617.1055541801616 L-50.50032028231254,616.7452353674925 M-50.50032028231254,616.7452353674925 L-52.38810946801931,616.5214394655658 M-52.38810946801931,616.5214394655658 L-54.34710002951687,616.3586099976513 M-23.455607089091018,665.7234415033203 L-29.483041180730936,653.5277146930073 M140.80712038842296,631.2402999133119 L135.3012070407906,616.5453793412116 M135.3012070407906,616.5453793412116 L94.4796026617114,625.8350495251385 M94.4796026617114,625.8350495251385 L52.90227730052021,635.208336117951 M52.90227730052021,635.208336117951 L12.085349450724323,644.3258410431725 M12.085349450724323,644.3258410431725 L-29.483041180730936,653.5277146930073 M169.19271504147812,622.4223028449138 L163.8492630494391,607.3238673177149 M135.3012070407906,616.5453793412116 L139.108012384262,615.6237026490371 M139.108012384262,615.6237026490371 L142.94302508792612,614.6021065421685 M142.94302508792612,614.6021065421685 L146.71309812759517,613.5056985834528 M146.71309812759517,613.5056985834528 L150.45735942376913,612.3251143371408 M150.45735942376913,612.3251143371408 L154.1709367038154,611.0622103613667 M154.1709367038154,611.0622103613667 L157.84883375741072,609.7191148471398 M157.84883375741072,609.7191148471398 L160.85552028104064,608.5511247066318 M160.85552028104064,608.5511247066318 L163.8492630494391,607.3238673177149 M361.8509229929186,541.1510444589338 L358.0897241966141,523.7461127398981 M358.0897241966141,523.7461127398981 L327.53750750711265,537.1068773300768 M327.53750750711265,537.1068773300768 L296.23064216742,550.7100894709669 M296.23064216742,550.7100894709669 L264.1372670060934,564.5664510930831 M264.1372670060934,564.5664510930831 L231.22370896685482,578.6872434291946 M231.22370896685482,578.6872434291946 L197.9696201353447,592.8654527416172 M197.9696201353447,592.8654527416172 L163.8492630494391,607.3238673177149 M853.7232169447482,142.9235810001535 L854.3471000295169,134.27655849667968 M849.7495797575639,142.5296418395057 L851.321591602295,139.76603519239006 M851.321591602295,139.76603519239006 L852.8540030018808,137.0149996933893 M852.8540030018808,137.0149996933893 L854.3471000295169,134.27655849667968 M358.0897241966141,523.7461127398981 L370.3691380581015,518.3482849247123 M370.3691380581015,518.3482849247123 L382.499317372528,512.9160343667787 M382.499317372528,512.9160343667787 L394.44327984551614,507.4673602598326 M394.44327984551614,507.4673602598326 L406.21967405908845,501.9954262030699 M406.21967405908845,501.9954262030699 L417.8285547237274,496.5016604997476 M417.8285547237274,496.5016604997476 L429.2701399644779,490.9874035636801 M429.2701399644779,490.9874035636801 L440.54460875170275,485.4540427328917 M440.54460875170275,485.4540427328917 L451.6522353335305,479.9029175485516 M451.6522353335305,479.9029175485516 L462.59337446164113,474.3353176671419 M462.59337446164113,474.3353176671419 L473.36842283675657,468.7525498332076 M473.36842283675657,468.7525498332076 L483.977833251004,463.15584693982123 M483.977833251004,463.15584693982123 L494.42203484189343,457.5465070953761 M494.42203484189343,457.5465070953761 L504.70166016660323,451.9256898250213 M504.70166016660323,451.9256898250213 L514.8172146261172,446.29462911130463 M514.8172146261172,446.29462911130463 L524.7694005585977,440.65447356980144 M524.7694005585977,440.65447356980144 L534.5588408155578,435.00638159019127 M534.5588408155578,435.00638159019127 L544.186288988554,429.35148037339775 M544.186288988554,429.35148037339775 L553.6524776774456,423.69086296522664 M553.6524776774456,423.69086296522664 L562.95819836278,418.0256195466088 M562.95819836278,418.0256195466088 L572.1042976839911,412.3567920510833 M572.1042976839911,412.3567920510833 L582.0800663772327,406.0554135862401 M582.0800663772327,406.0554135862401 L591.8609561019015,399.752355736444 M591.8609561019015,399.752355736444 L601.4483119536565,393.4489259656906 M601.4483119536565,393.4489259656906 L610.8434561706634,387.1464493955442 M610.8434561706634,387.1464493955442 L620.0477539051232,380.84620336044327 M620.0477539051232,380.84620336044327 L629.0625673382654,374.549456147727 M629.0625673382654,374.549456147727 L637.8893689752355,368.2574230305544 M637.8893689752355,368.2574230305544 L646.5295859462562,361.9713089156886 M646.5295859462562,361.9713089156886 L654.9847434531221,355.69226129498094 M654.9847434531221,355.69226129498094 L663.2563362756571,349.42142334536436 M663.2563362756571,349.42142334536436 L671.3459456578964,343.1598815769494 M671.3459456578964,343.1598815769494 L679.2551065776072,336.9087315812245 M679.2551065776072,336.9087315812245 L686.9854423079021,330.6689920524058 M686.9854423079021,330.6689920524058 L694.5385641248456,324.441692250904 M694.5385641248456,324.441692250904 L701.9161034061489,318.2278209949294 M701.9161034061489,318.2278209949294 L709.1197029703859,312.0283301051119 M709.1197029703859,312.0283301051119 L716.1510397616014,305.8441586986288 M716.1510397616014,305.8441586986288 L723.0117862650163,299.67620410559584 M723.0117862650163,299.67620410559584 L729.7036398292853,293.5253586044755 M729.7036398292853,293.5253586044755 L736.2282932460753,287.39246871344346 M736.2282932460753,287.39246871344346 L742.5872321026623,281.27860264596353 M742.5872321026623,281.27860264596353 L748.782534903454,275.1842109316238 M748.782534903454,275.1842109316238 L754.8159919832077,269.1099977063858 M754.8159919832077,269.1099977063858 L760.6893282805679,263.0567271607034 M760.6893282805679,263.0567271607034 L766.4042565144995,257.0251259455458 M766.4042565144995,257.0251259455458 L771.9625023890874,251.01590850786118 M771.9625023890874,251.01590850786118 L777.3657938985162,245.02976722549738 M777.3657938985162,245.02976722549738 L782.6158576897612,239.06737277595687 M782.6158576897612,239.06737277595687 L787.714421574151,233.1293757371979 M787.714421574151,233.1293757371979 L792.6631993240687,227.21639712105326 M792.6631993240687,227.21639712105326 L797.4639247329832,221.32905365063084 M797.4639247329832,221.32905365063084 L802.11831130547,215.46792747933557 M802.11831130547,215.46792747933557 L806.6280724709253,209.6335962360339 M806.6280724709253,209.6335962360339 L810.9949293820135,203.82660655091422 M810.9949293820135,203.82660655091422 L815.2205780468232,198.04749194982753 M815.2205780468232,198.04749194982753 L819.3067137154628,192.29677155460928 M819.3067137154628,192.29677155460928 L823.2550451837462,186.5749431465626 M823.2550451837462,186.5749431465626 L827.0672468238479,180.88249204733728 M827.0672468238479,180.88249204733728 L830.7449974762114,175.21987977037793 M830.7449974762114,175.21987977037793 L834.2899757769267,169.58755465246594 M834.2899757769267,169.58755465246594 L837.7038312565205,163.98596214775387 M837.7038312565205,163.98596214775387 L840.988217368086,158.41551055019113 M840.988217368086,158.41551055019113 L844.144783727744,152.87661262528104 M844.144783727744,152.87661262528104 L847.006907599304,147.68063123329193 M847.006907599304,147.68063123329193 L849.7495797575639,142.5296418395057 M237.32999369069492,421.87896908263417 L232.71473338699047,404.9924594355515 M838.7471294993034,137.32424858642577 L830.4033913768594,139.50852083446324 M830.4033913768594,139.50852083446324 L822.0403441796491,141.7360834497543 M822.0403441796491,141.7360834497543 L813.7072060550522,143.9939202513176 M813.7072060550522,143.9939202513176 L805.3784832436463,146.28885492605417 M805.3784832436463,146.28885492605417 L797.0535990113062,148.62115029687425 M797.0535990113062,148.62115029687425 L788.7319318832638,150.99109358845118 M788.7319318832638,150.99109358845118 L780.4129168221834,153.39895644320052 M780.4129168221834,153.39895644320052 L772.0959320345555,155.8450582964486 M772.0959320345555,155.8450582964486 L763.7803808275934,158.32970385766612 M763.7803808275934,158.32970385766612 L755.4656505949604,160.8532217794762 M755.4656505949604,160.8532217794762 L747.1511300123345,163.41595415640734 M747.1511300123345,163.41595415640734 L738.8361877975408,166.01825509421627 M738.8361877975408,166.01825509421627 L730.5202126150791,168.6604903047342 M730.5202126150791,168.6604903047342 L722.2025727392086,171.3430443524192 M722.2025727392086,171.3430443524192 L713.882624043418,174.0663180127375 M713.882624043418,174.0663180127375 L705.5597308077666,176.83071378465036 M705.5597308077666,176.83071378465036 L697.2332444639922,179.63666751423102 M697.2332444639922,179.63666751423102 L688.9020598497293,182.48476942052446 M688.9020598497293,182.48476942052446 L680.5652996546951,185.3755648479102 M680.5652996546951,185.3755648479102 L672.2232662885272,188.30919427871987 M672.2232662885272,188.30919427871987 L663.8752774922681,191.28613991467546 M663.8752774922681,191.28613991467546 L655.5206536813055,194.30691778055967 M655.5206536813055,194.30691778055967 L647.1586875265584,197.37203894250854 M647.1586875265584,197.37203894250854 L638.7886875588915,200.48205334750293 M638.7886875588915,200.48205334750293 L630.4099455266389,203.63751709193292 M630.4099455266389,203.63751709193292 L622.0217332428344,206.83899992719887 M622.0217332428344,206.83899992719887 L613.6233372206055,210.08710463808512 M613.6233372206055,210.08710463808512 L605.2140164007017,213.38244230070353 M605.2140164007017,213.38244230070353 L596.793034564462,216.7256486806089 M596.793034564462,216.7256486806089 L588.3596401677355,220.11737102404004 M588.3596401677355,220.11737102404004 L579.9130680946694,223.55829664436362 M579.9130680946694,223.55829664436362 L571.4525550676176,227.04911089336514 M571.4525550676176,227.04911089336514 L562.9773245263028,230.59053560993067 M562.9773245263028,230.59053560993067 L554.4865798259899,234.1833169595959 M554.4865798259899,234.1833169595959 L545.9795213547302,237.82820691262202 M545.9795213547302,237.82820691262202 L537.4553446181945,241.52599570873997 M537.4553446181945,241.52599570873997 L528.9132252996686,245.27749990090325 M528.9132252996686,245.27749990090325 L520.3523214324737,249.08355139436503 M520.3523214324737,249.08355139436503 L511.7717980336382,252.94500614570705 M511.7717980336382,252.94500614570705 L503.1707885452596,256.8627582879287 M503.1707885452596,256.8627582879287 L494.5484202957538,260.8377243596365 M494.5484202957538,260.8377243596365 L485.90381699591967,264.8708299356618 M485.90381699591967,264.8708299356618 L477.2360718711188,268.9630618199852 M477.2360718711188,268.9630618199852 L468.54428139565215,273.11540016673837 M468.54428139565215,273.11540016673837 L459.8275101572424,277.32889192794624 M459.8275101572424,277.32889192794624 L451.08482579650234,281.6045784985632 M451.08482579650234,281.6045784985632 L442.31525746629575,285.9435685656605 M442.31525746629575,285.9435685656605 L433.517832428528,290.3469757646317 M433.517832428528,290.3469757646317 L424.69156496294886,294.8159543686025 M424.69156496294886,294.8159543686025 L415.83542626233685,299.35170838017746 M415.83542626233685,299.35170838017746 L405.95906063098977,304.4712068684629 M405.95906063098977,304.4712068684629 L396.0431330300574,309.67638747133554 M396.0431330300574,309.67638747133554 L386.08625170166147,314.9690027491587 M386.08625170166147,314.9690027491587 L376.08690771533037,320.35091093055405 M376.08690771533037,320.35091093055405 L366.04355955907045,325.8240337096269 M366.04355955907045,325.8240337096269 L355.95463129605105,331.3903549785703 M355.95463129605105,331.3903549785703 L345.81858287323246,337.05190093778276 M345.81858287323246,337.05190093778276 L335.6337321598674,342.8108014493852 M335.6337321598674,342.8108014493852 L325.39846129583304,348.6692154775274 M325.39846129583304,348.6692154775274 L315.1110206584394,354.62942536268696 M315.1110206584394,354.62942536268696 L304.76971454483305,360.69374068333934 M304.76971454483305,360.69374068333934 L294.37277462813455,366.8645638364136 M294.37277462813455,366.8645638364136 L283.91831930358865,373.14440846494017 M283.91831930358865,373.14440846494017 L273.40449614698866,379.5358499891512 M273.40449614698866,379.5358499891512 L262.82943443873023,386.04152638774667 M262.82943443873023,386.04152638774667 L252.1911111501273,392.6642180609207 M252.1911111501273,392.6642180609207 L242.47374264688148,398.7822013399633 M242.47374264688148,398.7822013399633 L232.71473338699047,404.9924594355515 M854.3471000295169,134.27655849667968 L849.1467594573,135.27552442248816 M849.1467594573,135.27552442248816 L843.9468003107725,136.29139784565308 M843.9468003107725,136.29139784565308 L838.7471294993034,137.32424858642577 M81.80173334751663,517.7100152416286 L76.08839643075942,502.86181792667264 M76.08839643075942,502.86181792667264 L107.56253140928413,483.45276920730544 M107.56253140928413,483.45276920730544 L137.90690729253197,464.6248034216668 M137.90690729253197,464.6248034216668 L167.1840329323412,446.34527438853934 M167.1840329323412,446.34527438853934 L195.4519381236255,428.5839240201376 M195.4519381236255,428.5839240201376 L214.30019118596329,416.6770269584207 M214.30019118596329,416.6770269584207 L232.71473338699047,404.9924594355515 M61.21740046442159,532.7119064179273 L55.408146256652,518.228653098214 M76.08839643075942,502.86181792667264 L72.87674891872632,504.8959616551838 M72.87674891872632,504.8959616551838 L69.76123760055532,506.97683319692726 M69.76123760055532,506.97683319692726 L66.70116127819051,509.1321695276896 M66.70116127819051,509.1321695276896 L63.72396263578116,511.3444653250706 M63.72396263578116,511.3444653250706 L60.834192279507874,513.6109331762417 M60.834192279507874,513.6109331762417 L58.05912527938682,515.9092771088463 M58.05912527938682,515.9092771088463 L55.408146256652,518.228653098214 M-54.34710002951687,616.3586099976513 L-21.325151099655614,587.012334971753 M-21.325151099655614,587.012334971753 L10.077968608724177,558.967880120539 M10.077968608724177,558.967880120539 L33.160653793788754,538.2626514959027 M33.160653793788754,538.2626514959027 L55.408146256652,518.228653098214 M838.7471294993034,137.32424858642577 L849.7495797575639,142.5296418395057" stroke="black"  stroke-width="4"  fill="red"/></svg>