<svg viewBox="0 0 800 800" xmlns="http://www.w3.org/2000/svg"><path d="M474.26235870153545,294.0217532905396 L474.4694852815561,269.9852513575579 M97.19992680615428,498.112781311877 L92.73519830348687,471.82011684256565 M474.26235870153545,294.0217532905396 L97.19992680615428,498.112781311877 M474.4694852815561,269.9852513575579 L92.73519830348687,471.82011684256565 M68.62566438908243,597.0969299022256 L63.4127921913734,570.0100514028397 M97.19992680615428,498.112781311877 L94.21113869516995,499.77985281308924 M94.21113869516995,499.77985281308924 L91.29217698048785,501.5080189394111 M91.29217698048785,501.5080189394111 L88.44671645285916,503.2955349796293 M88.44671645285916,503.2955349796293 L85.67829982319694,505.1406351368401 M85.67829982319694,505.1406351368401 L82.99049984208892,507.04142640866365 M82.99049984208892,507.04142640866365 L80.38682168573558,508.99594657083884 M80.38682168573558,508.99594657083884 L77.87064442795884,511.0022089583013 M77.87064442795884,511.0022089583013 L75.44533096520507,513.0581001374555 M75.44533096520507,513.0581001374555 L73.11424033604044,515.1614336981195 M73.11424033604044,515.1614336981195 L70.88056799842451,517.3099618840834 M70.88056799842451,517.3099618840834 L68.74747386624091,519.5013827017583 M68.74747386624091,519.5013827017583 L66.71805744220205,521.7332697956306 M66.71805744220205,521.7332697956306 L64.79529700443624,524.003166095858 M64.79529700443624,524.003166095858 L62.98210065109333,526.3085284033878 M62.98210065109333,526.3085284033878 L61.281244391999394,528.6467736519696 M61.281244391999394,528.6467736519696 L59.695491996021644,531.0151813782459 M59.695491996021644,531.0151813782459 L58.227397893281704,533.4110258864753 M58.227397893281704,533.4110258864753 L56.87945606392071,535.8315036283007 M56.87945606392071,535.8315036283007 L55.654034155323586,538.2737286291535 M55.654034155323586,538.2737286291535 L54.55336923536032,540.7347803236705 M54.55336923536032,540.7347803236705 L53.57957022026767,543.2116575027728 M53.57957022026767,543.2116575027728 L52.73460721017727,545.7013218287259 M52.73460721017727,545.7013218287259 L52.02032562207273,548.2006617786315 M52.02032562207273,548.2006617786315 L51.43838356149962,550.7065445663945 M51.43838356149962,550.7065445663945 L50.990314060742264,553.21577026861 M50.990314060742264,553.21577026861 L50.67745896978795,555.7251220518867 M50.67745896978795,555.7251220518867 L50.50102529606875,558.231315230564 M50.50102529606875,558.231315230564 L50.46206159504982,560.731032775424 M50.46206159504982,560.731032775424 L50.56141287378267,563.2209437442384 M50.56141287378267,563.2209437442384 L50.79971510941914,565.6977041525347 M50.79971510941914,565.6977041525347 L51.17746707566579,568.1579189839022 M51.17746707566579,568.1579189839022 L51.69492156160601,570.5982118924608 M51.69492156160601,570.5982118924608 L52.352231801975506,573.0151458876301 M52.352231801975506,573.0151458876301 L53.14918289776506,575.4053686783077 M53.14918289776506,575.4053686783077 L54.08553098180931,577.7654339055287 M54.08553098180931,577.7654339055287 L55.1607361789558,580.0919485375359 M55.1607361789558,580.0919485375359 L56.37404140399735,582.3815414091389 M56.37404140399735,582.3815414091389 L57.724463960918456,584.6308625276497 M57.724463960918456,584.6308625276497 L59.21084029674097,586.8365744202529 M59.21084029674097,586.8365744202529 L60.831819055939604,588.995352122726 M60.831819055939604,588.995352122726 L62.585711661233915,591.1039762112873 M62.585711661233915,591.1039762112873 L64.47075759651227,593.1591908227883 M64.47075759651227,593.1591908227883 L66.48482314837355,595.1578814759548 M66.48482314837355,595.1578814759548 L68.62566438908243,597.0969299022256 M92.73519830348687,471.82011684256565 L89.70290855168793,473.47218647610566 M89.70290855168793,473.47218647610566 L86.74099134643075,475.18485969430844 M86.74099134643075,475.18485969430844 L83.85317234090246,476.9564136803604 M83.85317234090246,476.9564136803604 L81.04304426485453,478.78510468556664 M81.04304426485453,478.78510468556664 L78.31423148739111,480.66906282290375 M78.31423148739111,480.66906282290375 L75.67029097651351,482.60634949555936 M75.67029097651351,482.60634949555936 L73.11465286555489,484.595001751185 M73.11465286555489,484.595001751185 L70.65073215744837,486.632930820329 M70.65073215744837,486.632930820329 L68.28194100359059,488.71797539487403 M68.28194100359059,488.71797539487403 L66.01152691243914,490.8479131219315 M66.01152691243914,490.8479131219315 L63.842702369544384,493.02046761766024 M63.842702369544384,493.02046761766024 L61.77861992526027,495.2332389097599 M61.77861992526027,495.2332389097599 L59.822310226634954,497.4837962417743 M59.822310226634954,497.4837962417743 L57.97673391188306,499.76962310028983 M57.97673391188306,499.76962310028983 L56.244718706104265,502.088163049825 M56.244718706104265,502.088163049825 L54.629081169834876,504.43672299098097 M54.629081169834876,504.43672299098097 L53.132426518459965,506.81260417766845 M53.132426518459965,506.81260417766845 L51.75729967538041,509.2130301796663 M51.75729967538041,509.2130301796663 L50.50611852850318,511.6351423131961 M50.50611852850318,511.6351423131961 L49.38116939280684,514.0760470524433 M49.38116939280684,514.0760470524433 L48.384609612395366,516.5327703297864 M48.384609612395366,516.5327703297864 L47.51845653229236,519.0023006696363 M47.51845653229236,519.0023006696363 L46.784601911392485,521.4815534027796 M46.784601911392485,521.4815534027796 L46.18474821162647,523.967422149593 M46.18474821162647,523.967422149593 L45.72047177484916,526.4567332983231 M45.72047177484916,526.4567332983231 L45.39315558407117,528.9462958174311 M45.39315558407117,528.9462958174311 L45.20404648466035,531.432850705715 M45.20404648466035,531.432850705715 L45.15423105578424,533.9131062092747 M45.15423105578424,533.9131062092747 L45.24458977694968,536.3837561049043 M45.24458977694968,536.3837561049043 L45.47579139685644,538.8414805660209 M45.47579139685644,538.8414805660209 L45.84836579113238,541.2829084664563 M45.84836579113238,541.2829084664563 L46.362593385960736,543.7046865531231 M46.362593385960736,543.7046865531231 L47.01865377821872,546.1034007436049 M47.01865377821872,546.1034007436049 L47.81635292523646,548.4757203851552 M47.81635292523646,548.4757203851552 L48.755467469339294,550.8182208508447 M48.755467469339294,550.8182208508447 L49.835473477006644,553.1275298450548 M49.835473477006644,553.1275298450548 L51.0556263380376,555.4002962075333 M51.0556263380376,555.4002962075333 L52.41495218519475,557.6331892532401 M52.41495218519475,557.6331892532401 L53.91229321446224,559.8228902130718 M53.91229321446224,559.8228902130718 L55.54630058433298,561.9660922535193 M55.54630058433298,561.9660922535193 L57.31528255273503,564.0595928761702 M57.31528255273503,564.0595928761702 L59.21747383692883,566.100153001514 M59.21747383692883,566.100153001514 L61.25072953705535,568.0846735591695 M61.25072953705535,568.0846735591695 L63.4127921913734,570.0100514028397 M222.92668144127055,597.0969299022256 L219.79895812264508,570.0100514028397 M68.62566438908243,597.0969299022256 L70.89077884732092,598.9733079175364 M70.89077884732092,598.9733079175364 L73.27744445503697,600.7840625372114 M73.27744445503697,600.7840625372114 L75.7826836128661,602.5263446444062 M75.7826836128661,602.5263446444062 L78.40341741981808,604.19732916166 M78.40341741981808,604.19732916166 L81.13620362406851,605.794374622234 M81.13620362406851,605.794374622234 L83.97754062209032,607.3148536874951 M83.97754062209032,607.3148536874951 L86.92360968837306,608.7563161155699 M86.92360968837306,608.7563161155699 L89.97043135090775,610.1164087772554 M89.97043135090775,610.1164087772554 L93.11386332782536,611.3928764145357 M93.11386332782536,611.3928764145357 L96.3495764742018,612.5835977505958 M96.3495764742018,612.5835977505958 L99.67305286452768,613.6865855941633 M99.67305286452768,613.6865855941633 L103.07952284181056,614.700043246929 M103.07952284181056,614.700043246929 L106.56422972102234,615.6222101642488 M106.56422972102234,615.6222101642488 L110.12210441777853,616.4515740794711 M110.12210441777853,616.4515740794711 L113.74802923245403,617.1867147514774 M113.74802923245403,617.1867147514774 L117.4366949979331,617.8263986865786 M117.4366949979331,617.8263986865786 L121.18272635290697,618.3695212484577 M121.18272635290697,618.3695212484577 L124.98061490975022,618.8151562887988 M124.98061490975022,618.8151562887988 L128.82472460210136,619.1625579457543 M128.82472460210136,619.1625579457543 L132.70933122921713,619.411136815864 M132.70933122921713,619.411136815864 L136.62868516860567,619.5604554258864 M136.62868516860567,619.5604554258864 L140.57692942947563,619.610262763533 M140.57692942947563,619.610262763533 L144.54819339333957,619.5604610475934 M144.54819339333957,619.5604610475934 L148.5365180189765,619.4111452465709 M148.5365180189765,619.4111452465709 L152.53595304106017,619.1625719917913 M152.53595304106017,619.1625719917913 L156.54050600485863,618.815164712111 M156.54050600485863,618.815164712111 L160.54421905304525,618.3695184425296 M160.54421905304525,618.3695184425296 L164.54110458401783,617.8263930792116 M164.54110458401783,617.8263930792116 L168.52522872520146,617.1867231546 M168.52522872520146,617.1867231546 L172.49072331737648,616.4515684834603 M172.49072331737648,616.4515684834603 L176.43165567245683,615.6222101642488 M176.43165567245683,615.6222101642488 L180.3422772921158,614.7000334791994 M180.3422772921158,614.7000334791994 L184.21685926098053,613.686595347275 M184.21685926098053,613.686595347275 L188.0497838089299,612.5835880133809 M188.0497838089299,612.5835880133809 L191.83545619692597,611.3928639173052 M191.83545619692597,611.3928639173052 L195.56847252588472,610.116410163213 M195.56847252588472,610.116410163213 L199.243518883034,608.7563119660749 M199.243518883034,608.7563119660749 L202.85537200821958,607.314848856766 M202.85537200821958,607.314848856766 L206.39894876752427,605.794374622234 M206.39894876752427,605.794374622234 L209.86939913865285,604.1973360307832 M209.86939913865285,604.1973360307832 L213.2619315861672,602.5263295699069 M213.2619315861672,602.5263295699069 L216.57190073692294,600.7840642457768 M216.57190073692294,600.7840642457768 L219.7949219049051,598.9732975234369 M219.7949219049051,598.9732975234369 L222.92668144127055,597.0969299022256 M63.4127921913734,570.0100514028397 L65.70114103126815,571.8732725612517 M65.70114103126815,571.8732725612517 L68.11303147461825,573.6713975112975 M68.11303147461825,573.6713975112975 L70.64545856034704,575.4015897002434 M70.64545856034704,575.4015897002434 L73.2953135552433,577.0610363243893 M73.2953135552433,577.0610363243893 L76.05911771156076,578.6471068502678 M76.05911771156076,578.6471068502678 L78.93333103763928,580.1571847581545 M78.93333103763928,580.1571847581545 L81.91409039368648,581.5888294451281 M81.91409039368648,581.5888294451281 L84.99736830454259,582.9396968477517 M84.99736830454259,582.9396968477517 L88.17897087577035,584.2075402474775 M88.17897087577035,584.2075402474775 L91.45451329494847,585.3902461888028 M91.45451329494847,585.3902461888028 L94.81941791367876,586.4858346362234 M94.81941791367876,586.4858346362234 L98.2688502637966,587.4925150557262 M98.2688502637966,587.4925150557262 L101.79798798417659,588.4085331563006 M101.79798798417659,588.4085331563006 L105.4016902755829,589.2323816410899 M105.4016902755829,589.2323816410899 L109.07476591498698,589.9626450414282 M109.07476591498698,589.9626450414282 L112.81182816866976,590.5980938466291 M112.81182816866976,590.5980938466291 L116.60742205424322,591.1376270335302 M116.60742205424322,591.1376270335302 L120.45595649112096,591.5803213994693 M120.45595649112096,591.5803213994693 L124.35170979570017,591.925433376734 M124.35170979570017,591.925433376734 L128.288869932698,592.1723753840911 M128.288869932698,592.1723753840911 L132.26159818892643,592.3207113455633 M132.26159818892643,592.3207113455633 L136.26394607599406,592.3701910065258 M136.26394607599406,592.3701910065258 L140.28995056038679,592.320716930283 M140.28995056038679,592.320716930283 L144.33355820736233,592.1723837593038 M144.33355820736233,592.1723837593038 L148.38872391185362,591.9254473302447 M148.38872391185362,591.9254473302447 L152.44935931151628,591.5803297672351 M152.44935931151628,591.5803297672351 L156.50941070951652,591.1376242461304 M156.50941070951652,591.1376242461304 L160.5627939648059,590.5980882763506 M160.5627939648059,590.5980882763506 L164.60347917641002,589.9626533888625 M164.60347917641002,589.9626533888625 L168.62550306724532,589.2323760822469 M168.62550306724532,589.2323760822469 L172.62283676318734,588.4085331563006 M172.62283676318734,588.4085331563006 L176.58963834906137,587.4925053532163 M176.58963834906137,587.4925053532163 L180.52008588717484,586.4858443240148 M180.52008588717484,586.4858443240148 L184.40847041301004,585.3902365170181 M184.40847041301004,585.3902365170181 L188.24910661704746,584.2075278345221 M188.24910661704746,584.2075278345221 L192.0365030841556,582.9396982243277 M192.0365030841556,582.9396982243277 L195.76526021309647,581.5888253238352 M195.76526021309647,581.5888253238352 L199.430070691139,580.1571799603971 M199.430070691139,580.1571799603971 L203.02577000625968,578.6471068502678 M203.02577000625968,578.6471068502678 L206.5474306783158,577.0610431461973 M206.5474306783158,577.0610431461973 L209.9901851442783,575.4015747300843 M209.9901851442783,575.4015747300843 L213.34931475122661,573.671399207977 M213.34931475122661,573.671399207977 L216.6203660044336,571.8732622398381 M216.6203660044336,571.8732622398381 L219.79895812264508,570.0100514028397 M602.7445695697331,362.1455442372223 L604.3930847091797,337.2635398525605 M222.92668144127055,597.0969299022256 L602.7445695697331,362.1455442372223 M219.79895812264508,570.0100514028397 L604.3930847091797,337.2635398525605 M609.5311598517683,357.32982887246646 L611.2474601133665,332.5045561313874 M602.7445695697331,362.1455442372223 L604.5525100618249,360.9883922597874 M604.5525100618249,360.9883922597874 L606.2873339688356,359.7991273508099 M606.2873339688356,359.7991273508099 L607.9473894395544,358.5791361241054 M607.9473894395544,358.5791361241054 L609.5311598517683,357.32982887246646 M604.3930847091797,337.2635398525605 L606.2193407991904,336.1199775228262 M606.2193407991904,336.1199775228262 L607.9715772243892,334.94470721887853 M607.9715772243892,334.94470721887853 L609.6481269730164,333.73910147097416 M609.6481269730164,333.73910147097416 L611.2474601133665,332.5045561313874 M699.2140344575437,282.61248306944816 L701.7359549785497,258.7266184401468 M609.5311598517683,357.32982887246646 L699.2140344575437,282.61248306944816 M611.2474601133665,332.5045561313874 L701.7359549785497,258.7266184401468 M701.8709868866479,280.20247310780235 L704.4142007178891,256.34875928209755 M699.2140344575437,282.61248306944816 L700.1514648840634,281.82543452556007 M700.1514648840634,281.82543452556007 L701.0373700388373,281.02182034899886 M701.0373700388373,281.02182034899886 L701.8709868866479,280.20247310780235 M701.7359549785497,258.7266184401468 L702.681071334124,257.9500568341445 M702.681071334124,257.9500568341445 L703.5740759000889,257.1571630363608 M703.5740759000889,257.1571630363608 L704.4142007178891,256.34875928209755 M724.6986449386181,255.9040306828732 L727.4095577605272,232.38092397599678 M701.8709868866479,280.20247310780235 L724.6986449386181,255.9040306828732 M704.4142007178891,256.34875928209755 L727.4095577605272,232.38092397599678 M726.3544272974664,253.773308664208 L729.0760464770917,230.27975257015459 M724.6986449386181,255.9040306828732 L725.3003819882895,255.20564193281905 M725.3003819882895,255.20564193281905 L725.8524888446648,254.4951190233905 M725.8524888446648,254.4951190233905 L726.3544272974664,253.773308664208 M727.4095577605272,232.38092397599678 L728.0154033884191,231.69221111659976 M728.0154033884191,231.69221111659976 L728.571079753347,230.99154216042115 M728.571079753347,230.99154216042115 L729.0760464770917,230.27975257015459 M744.7646433869315,224.87216917067738 L747.5850914331068,201.78834829735862 M726.3544272974664,253.773308664208 L744.7646433869315,224.87216917067738 M729.0760464770917,230.27975257015459 L747.5850914331068,201.78834829735862 M745.3625692996268,223.7091532619345 L748.1853822556886,200.64216788538727 M744.7646433869315,224.87216917067738 L744.99335041279,224.48988157106763 M744.99335041279,224.48988157106763 L745.1927277315231,224.1020431459733 M745.1927277315231,224.1020431459733 L745.3625692996268,223.7091532619345 M747.5850914331068,201.78834829735862 L747.8148896661385,201.41159162393677 M747.8148896661385,201.41159162393677 L748.0150553571339,201.02936739984787 M748.0150553571339,201.02936739984787 L748.1853822556886,200.64216788538727 M751.9012458405639,207.36574679890913 L754.7380341900987,184.53818438000113 M745.3625692996268,223.7091532619345 L751.9012458405639,207.36574679890913 M748.1853822556886,200.64216788538727 L754.7380341900987,184.53818438000113 M749.3654455016765,204.07163402878257 L752.168174608395,181.29297080001297 M751.9012458405639,207.36574679890913 L752.0070297236318,206.98474232448237 M752.0070297236318,206.98474232448237 L752.0102792582222,206.59318155638312 M752.0102792582222,206.59318155638312 L751.9110726857523,206.1972571046216 M751.9110726857523,206.1972571046216 L751.7110769098806,205.80323061257553 M751.7110769098806,205.80323061257553 L751.4135767858365,205.41729826338621 M751.4135767858365,205.41729826338621 L751.0233571078513,205.04552682195583 M751.0233571078513,205.04552682195583 L750.5466884822192,204.6937214092591 M750.5466884822192,204.6937214092591 L749.9911151238755,204.36739785554488 M749.9911151238755,204.36739785554488 L749.3654455016765,204.07163402878257 M754.7380341900987,184.53818438000113 L754.8436735407311,184.16282468149166 M754.8436735407311,184.16282468149166 L754.8457689442157,183.77706808818178 M754.8457689442157,183.77706808818178 L754.7444193477006,183.38701558889636 M754.7444193477006,183.38701558889636 L754.5413277047896,182.998835989502 M754.5413277047896,182.998835989502 L754.2398300405787,182.6186334123919 M754.2398300405787,182.6186334123919 L753.8447760317108,182.25238429742492 M753.8447760317108,182.25238429742492 L753.3625142666729,181.90580716002205 M753.3625142666729,181.90580716002205 L752.8006778780032,181.58433538467497 M752.8006778780032,181.58433538467497 L752.168174608395,181.29297080001297 M742.429068143957,203.33844011834333 L745.163745904895,180.57069002810036 M749.3654455016765,204.07163402878257 L748.6795331627195,203.8110387412374 M748.6795331627195,203.8110387412374 L747.944170162144,203.58965478536413 M747.944170162144,203.58965478536413 L747.1708704105322,203.4109270225811 M747.1708704105322,203.4109270225811 L746.371770643857,203.27760632259265 M746.371770643857,203.27760632259265 L745.5593326271971,203.19177445405194 M745.5593326271971,203.19177445405194 L744.7462593242224,203.15475156485232 M744.7462593242224,203.15475156485232 L743.9452362988166,203.16711597806267 M743.9452362988166,203.16711597806267 L743.1687962726692,203.22866215733416 M743.1687962726692,203.22866215733416 L742.429068143957,203.33844011834333 M752.168174608395,181.29297080001297 L751.4749654384118,181.03625309031952 M751.4749654384118,181.03625309031952 L750.731956716566,180.81816431850925 M750.731956716566,180.81816431850925 L749.9507813803009,180.64209753431285 M749.9507813803009,180.64209753431285 L749.143698747379,180.510762185131 M749.143698747379,180.510762185131 L748.3232940333551,180.42620867211502 M748.3232940333551,180.42620867211502 L747.5023935315737,180.38973723646694 M747.5023935315737,180.38973723646694 L746.6938037097034,180.4019174795131 M746.6938037097034,180.4019174795131 L745.910174452097,180.46254696248414 M745.910174452097,180.46254696248414 L745.163745904895,180.57069002810036 M711.3538884575364,208.95661729641293 L713.8082278819925,186.10551644986518 M742.429068143957,203.33844011834333 L711.3538884575364,208.95661729641293 M745.163745904895,180.57069002810036 L713.8082278819925,186.10551644986518 M709.1860853988944,209.4158358615131 L711.620910387785,186.55794978673552 M711.3538884575364,208.95661729641293 L710.6170062522492,209.09626414751278 M710.6170062522492,209.09626414751278 L709.8941104855915,209.24939476203232 M709.8941104855915,209.24939476203232 L709.1860853988944,209.4158358615131 M713.8082278819925,186.10551644986518 L713.0646717078989,186.2430994925417 M713.0646717078989,186.2430994925417 L712.3352685398304,186.3939674701664 M712.3352685398304,186.3939674701664 L711.620910387785,186.55794978673552 M656.6644133711654,222.32952341141393 L658.62393466242,199.28254400423842 M709.1860853988944,209.4158358615131 L656.6644133711654,222.32952341141393 M711.620910387785,186.55794978673552 L658.62393466242,199.28254400423842 M652.8879757744771,223.40944227153838 L654.8130958576235,200.34679978118376 M656.6644133711654,222.32952341141393 L655.3782814651638,222.66713585865693 M655.3782814651638,222.66713585865693 L654.1190184161833,223.02722749791255 M654.1190184161833,223.02722749791255 L652.8879757744771,223.40944227153838 M658.62393466242,199.28254400423842 L657.3260344425116,199.61525725110135 M657.3260344425116,199.61525725110135 L656.0553003840059,199.97012598174717 M656.0553003840059,199.97012598174717 L654.8130958576235,200.34679978118376 M610.6665908924294,237.48093107270478 L612.2046282210972,214.2163135846909 M652.8879757744771,223.40944227153838 L610.6665908924294,237.48093107270478 M654.8130958576235,200.34679978118376 L612.2046282210972,214.2163135846909 M606.552575050028,239.05263430878983 L608.0525599452315,215.76570157492807 M610.6665908924294,237.48093107270478 L609.2618657742673,237.98172293138697 M609.2618657742673,237.98172293138697 L607.8901123106532,238.50576495010466 M607.8901123106532,238.50576495010466 L606.552575050028,239.05263430878983 M612.2046282210972,214.2163135846909 L610.7868684153557,214.70998980863513 M610.7868684153557,214.70998980863513 L609.4024270847199,215.22659117110652 M609.4024270847199,215.22659117110652 L608.0525599452315,215.76570157492807 M482.10844689322755,290.2822914128525 L482.3962472600316,266.2948764990982 M606.552575050028,239.05263430878983 L482.10844689322755,290.2822914128525 M608.0525599452315,215.76570157492807 L482.3962472600316,266.2948764990982 M482.10844689322755,290.2822914128525 L480.0696399891389,291.16426883433496 M480.0696399891389,291.16426883433496 L478.08109415277903,292.08198789282574 M478.08109415277903,292.08198789282574 L476.1447090562038,293.0347369429826 M476.1447090562038,293.0347369429826 L474.26235870153545,294.0217532905396 M482.3962472600316,266.2948764990982 L480.3365112575159,267.1652513401252 M480.3365112575159,267.1652513401252 L478.32753086440385,268.0709140620928 M478.32753086440385,268.0709140620928 L476.3712246011925,269.01116430725716 M476.3712246011925,269.01116430725716 L474.4694852815561,269.9852513575579" stroke="black"  stroke-width="4"  fill="red"/></svg>